# xmcd
# 
# Track frame offsets:
#     150
#     19049
#     40189
#     58367
#     78452
#     97350
#     118491
#     136669
# 
# Disc length: 2086
# 
# Revision: 0
# Processed by: cddbd v1.5.2PL0 Copyright (c) Steve Scherf et al.
# Submitted via: fre:ac v1.0.17
# 
DISCID=71082408
DTITLE=Sexy Zone - バィバィDuバィ～See you again～
DYEAR=0
DGENRE=JPop
TTITLE0=バィバィDuバィ～See you again～
TTITLE1=A MY GIRL FRIEND
TTITLE2=Young and Beautiful !
TTITLE3=BAD BOYS～movie remix～
TTITLE4=バィバィDuバィ～See you again～ ( Inst.)
TTITLE5=A MY GIRL FRIEND ( Inst.)
TTITLE6=Young and Beautiful ! ( Inst.)
TTITLE7=BAD BOYS～movie remix～ ( Inst.)
EXTD=
EXTT0=
EXTT1=
EXTT2=
EXTT3=
EXTT4=
EXTT5=
EXTT6=
EXTT7=
PLAYORDER=
